<svg width="153" height="50" fill="none" xmlns="http://www.w3.org/2000/svg"><g clip-path="url(#a)"><path d="M37.634 11.118H22.162v27.747h15.472V11.118Z" fill="#FF5A00"/><mask id="b" style="mask-type:luminance" maskUnits="userSpaceOnUse" x="1" y="7" width="153" height="36"><path d="M154 7H1v36h153V7Z" fill="#fff"/></mask><g mask="url(#b)"><path d="M23.14 25c0-5.63 2.637-10.639 6.754-13.882a17.611 17.611 0 0 0-10.921-3.77C9.208 7.348 1.289 15.253 1.289 25S9.2 42.652 18.973 42.652c4.125 0 7.918-1.41 10.93-3.77-4.117-3.235-6.754-8.244-6.754-13.882h-.009Z" fill="#EB001B"/><path d="M58.507 25c0 9.747-7.91 17.652-17.683 17.652-4.126 0-7.92-1.41-10.93-3.77 4.117-3.235 6.753-8.244 6.753-13.882s-2.636-10.639-6.753-13.882a17.635 17.635 0 0 1 10.93-3.77c9.756 0 17.683 7.896 17.683 17.652Z" fill="#F79E1B"/><path d="M76.3 13.453c-.407 0-.782.068-1.122.22-.34.145-.638.34-.893.595a2.68 2.68 0 0 0-.596.908 3.004 3.004 0 0 0-.22 1.155c0 .416.067.807.22 1.155.145.348.34.654.596.908.255.255.544.459.893.595.34.136.715.22 1.123.22.408 0 .774-.067 1.114-.22.34-.145.646-.34.902-.595.255-.254.45-.56.595-.908.145-.348.221-.739.221-1.155 0-.416-.068-.806-.221-1.155a2.636 2.636 0 0 0-.595-.908 2.733 2.733 0 0 0-.902-.594 2.994 2.994 0 0 0-1.114-.221Zm0-1.3c.605 0 1.166.103 1.685.315.519.212.961.51 1.344.874.383.374.672.816.893 1.316.213.51.323 1.062.323 1.656 0 .595-.102 1.146-.323 1.656-.213.5-.51.95-.893 1.316a4.133 4.133 0 0 1-1.344.874c-.51.213-1.08.314-1.684.314a4.405 4.405 0 0 1-1.684-.314 4.133 4.133 0 0 1-1.344-.874 3.989 3.989 0 0 1-.885-1.316 4.225 4.225 0 0 1-.323-1.656c0-.594.102-1.146.323-1.655.213-.501.502-.943.885-1.317a4.132 4.132 0 0 1 1.344-.874 4.405 4.405 0 0 1 1.684-.314ZM86.754 13.453a2.6 2.6 0 0 0-1.106.22c-.34.145-.62.349-.867.603-.238.264-.425.56-.561.909-.136.348-.205.73-.205 1.138 0 .407.069.79.205 1.146.136.348.323.654.561.908.238.255.536.459.867.603.34.145.707.22 1.106.22.4 0 .791-.075 1.131-.22.34-.153.621-.356.868-.62.238-.263.425-.569.553-.908.128-.348.196-.722.196-1.12 0-.4-.068-.774-.196-1.122a2.681 2.681 0 0 0-.561-.908 2.748 2.748 0 0 0-.868-.62 2.816 2.816 0 0 0-1.123-.22v-.01Zm.153-1.3a4.03 4.03 0 0 1 1.574.306c.485.213.91.501 1.267.867.366.373.647.806.85 1.316.205.509.307 1.07.307 1.664 0 .594-.102 1.163-.306 1.664a4.176 4.176 0 0 1-.85 1.316 3.882 3.882 0 0 1-2.84 1.172c-.631 0-1.192-.11-1.652-.34-.459-.22-.859-.526-1.174-.9v1.061h-1.377V8.197h1.377v5.188a3.44 3.44 0 0 1 1.174-.9c.46-.22 1.021-.34 1.65-.34M96.766 12.154a4.2 4.2 0 0 1 1.667.322c.51.213.944.527 1.31.943l-.885.934c-.298-.289-.621-.501-.961-.662a2.814 2.814 0 0 0-1.157-.238c-.383 0-.748.068-1.072.22-.331.145-.62.34-.859.595a2.772 2.772 0 0 0-.578.908c-.145.348-.204.74-.204 1.155 0 .416.068.807.204 1.155.136.348.332.654.578.908.247.255.536.459.86.595.331.144.688.22 1.071.22.425 0 .825-.084 1.19-.263.367-.17.69-.39.97-.662l.851.95c-.366.408-.8.723-1.31.935a4.28 4.28 0 0 1-1.658.322 4.448 4.448 0 0 1-1.693-.314 3.895 3.895 0 0 1-1.31-.874 4.032 4.032 0 0 1-.85-1.316 4.38 4.38 0 0 1-.307-1.656c0-.594.102-1.146.306-1.655.196-.51.485-.943.851-1.317.366-.373.8-.662 1.31-.874a4.355 4.355 0 0 1 1.693-.314l-.017-.017ZM102.992 13.36c.161-.221.348-.417.553-.57.204-.152.425-.28.646-.373.221-.093.459-.161.706-.204.238-.042.476-.06.706-.06.493 0 .944.077 1.352.23a3.23 3.23 0 0 1 1.055.645c.298.272.527.62.689 1.01.162.391.247.833.247 1.308v4.959h-1.387v-4.517c0-.747-.187-1.316-.578-1.724-.383-.407-.927-.62-1.633-.62-.323 0-.621.06-.91.162-.29.102-.545.263-.749.467a2.211 2.211 0 0 0-.51.747c-.128.297-.187.62-.187.993v4.483h-1.378V8.197h1.378v5.162ZM115.265 13.453c-.408 0-.782.068-1.122.22-.341.145-.638.34-.893.595a2.674 2.674 0 0 0-.596.908 3.015 3.015 0 0 0-.221 1.155c0 .416.068.807.221 1.155.136.348.34.654.596.908.255.255.544.459.893.595.34.136.714.22 1.122.22a2.67 2.67 0 0 0 1.115-.22c.34-.145.646-.34.901-.595.255-.254.451-.56.596-.908.144-.348.221-.739.221-1.155 0-.416-.068-.806-.221-1.155a2.774 2.774 0 0 0-.596-.908 2.735 2.735 0 0 0-.901-.594 3 3 0 0 0-1.115-.221Zm0-1.3a4.4 4.4 0 0 1 1.684.315c.519.212.962.51 1.344.874.383.374.672.816.893 1.316a4.25 4.25 0 0 1 .324 1.656c0 .595-.102 1.146-.324 1.656-.212.5-.51.95-.893 1.316a4.123 4.123 0 0 1-1.344.874c-.51.213-1.08.314-1.684.314a4.404 4.404 0 0 1-1.684-.314 4.134 4.134 0 0 1-1.344-.874 3.989 3.989 0 0 1-.884-1.316 4.22 4.22 0 0 1-.323-1.656c0-.594.102-1.146.323-1.655.212-.501.502-.943.884-1.317a4.132 4.132 0 0 1 1.344-.874 4.404 4.404 0 0 1 1.684-.314ZM125.336 13.453c-.417 0-.791.076-1.131.22-.34.145-.63.349-.868.62a2.756 2.756 0 0 0-.553.909 3.247 3.247 0 0 0-.195 1.12c0 .4.068.773.195 1.121.136.348.315.654.562.909.238.263.536.467.867.62.341.152.715.22 1.123.22.408 0 .774-.067 1.106-.22.34-.145.621-.348.867-.603a2.9 2.9 0 0 0 .562-.909c.136-.348.204-.73.204-1.146a3.11 3.11 0 0 0-.204-1.138 2.807 2.807 0 0 0-.562-.908 2.613 2.613 0 0 0-.867-.603 2.79 2.79 0 0 0-1.106-.212Zm-.162-1.3c.63 0 1.183.111 1.642.34.459.23.859.527 1.182.909V8.197h1.387v12.116h-1.387v-1.061c-.323.373-.714.67-1.182.9-.459.22-1.012.34-1.642.34a4.03 4.03 0 0 1-1.573-.306 3.86 3.86 0 0 1-1.267-.866 4.223 4.223 0 0 1-.851-1.316 4.426 4.426 0 0 1-.306-1.664c0-.603.102-1.164.306-1.665.204-.5.485-.942.851-1.316a3.737 3.737 0 0 1 1.267-.866 3.88 3.88 0 0 1 1.573-.305M136.079 12.154c.493 0 .944.076 1.352.229a3.24 3.24 0 0 1 1.055.645c.298.272.527.62.689 1.01.161.391.247.833.247 1.308v4.967h-1.387v-4.517c0-.747-.187-1.316-.578-1.723-.383-.408-.927-.62-1.625-.62-.323 0-.621.06-.91.161a1.996 1.996 0 0 0-.748.467 2.334 2.334 0 0 0-.511.747 2.503 2.503 0 0 0-.187.994v4.483h-1.378v-7.981h1.361v1.044c.162-.22.349-.416.553-.569.213-.153.425-.28.655-.373.221-.102.468-.162.706-.204.238-.043.476-.068.706-.068Z" fill="#000"/></g><path d="M143.419 20.313h-1.378v-7.99h1.378v7.99Zm-1.829-9.229 1.727-2.522h1.744l-2.11 2.522h-1.361ZM146.472 8.197v12.116h1.378v-3.549h1.089l3.028 3.55h1.744l-3.624-4.22 3.573-3.77h-1.735l-2.977 3.192h-1.098V8.197h-1.378Z" fill="#000"/><mask id="c" style="mask-type:luminance" maskUnits="userSpaceOnUse" x="1" y="7" width="153" height="36"><path d="M154 7H1v36h153V7Z" fill="#fff"/></mask><g mask="url(#c)" fill="#000"><path d="M76.377 29.678c.29 0 .544.017.783.06.238.042.459.102.68.204l-.34 1.35a2.338 2.338 0 0 0-.663-.23 3.01 3.01 0 0 0-.715-.076c-.298 0-.578.06-.834.17a1.86 1.86 0 0 0-.663.484 2.058 2.058 0 0 0-.425.755c-.102.297-.153.62-.153.994v4.449h-1.378v-7.99h1.352v1.053c.28-.39.621-.696 1.03-.909.4-.212.841-.314 1.318-.314M83.012 30.969c-.409 0-.783.068-1.123.22-.34.145-.638.34-.893.595-.255.255-.45.552-.596.909a3.003 3.003 0 0 0-.22 1.154c0 .416.067.807.22 1.155.145.348.34.654.596.908.255.255.544.459.893.595.34.136.714.22 1.123.22.408 0 .774-.067 1.114-.22.34-.145.646-.34.901-.595.256-.254.451-.56.596-.908.144-.348.221-.739.221-1.155 0-.416-.068-.806-.221-1.154a2.636 2.636 0 0 0-.596-.909 2.732 2.732 0 0 0-.901-.594 2.996 2.996 0 0 0-1.114-.221Zm0-1.29c.604 0 1.165.101 1.684.314.519.212.961.509 1.344.874.382.374.672.815.893 1.316.212.51.323 1.061.323 1.656 0 .594-.102 1.146-.323 1.655-.213.501-.51.951-.893 1.316a4.128 4.128 0 0 1-1.344.875c-.51.212-1.08.314-1.684.314a4.402 4.402 0 0 1-1.684-.314 3.988 3.988 0 0 1-2.228-2.19 4.228 4.228 0 0 1-.324-1.656c0-.595.102-1.146.323-1.656a3.988 3.988 0 0 1 2.229-2.19 4.402 4.402 0 0 1 1.684-.315Z"/></g><path d="M90.803 33.04h1.089l2.977-3.192h1.735l-3.573 3.77 3.624 4.22H94.91l-3.02-3.55h-1.088v3.55h-1.378V25.722h1.378v7.319Z" fill="#000"/><mask id="d" style="mask-type:luminance" maskUnits="userSpaceOnUse" x="1" y="7" width="153" height="36"><path d="M154 7H1v36h153V7Z" fill="#fff"/></mask><g mask="url(#d)" fill="#000"><path d="M105.535 34.484c0 .603-.102 1.13-.298 1.57a3.027 3.027 0 0 1-.808 1.096c-.34.289-.723.5-1.165.645a4.416 4.416 0 0 1-1.378.212c-.477 0-.944-.067-1.387-.212a3.4 3.4 0 0 1-1.165-.645 3.12 3.12 0 0 1-.808-1.095c-.196-.442-.298-.96-.298-1.571v-4.636h1.387v4.517c0 .408.06.764.178 1.061.11.298.272.544.477.73.204.196.442.34.723.425.28.093.587.144.91.144.323 0 .621-.05.901-.144.273-.093.511-.238.715-.424.204-.196.357-.433.476-.73.111-.298.179-.646.179-1.062v-4.517h1.386v4.636h-.025ZM112.535 27.853c.136-.204.315-.416.519-.646.204-.22.459-.441.748-.636.298-.196.63-.357 1.021-.484a4.36 4.36 0 0 1 1.352-.195c.604 0 1.14.093 1.608.28a3.29 3.29 0 0 1 1.191.772c.323.332.578.713.748 1.172a4.169 4.169 0 0 1 .119 2.488 4.75 4.75 0 0 1-.366.883 5.347 5.347 0 0 1-.51.756c-.187.229-.383.45-.57.653l-3.385 3.592h5.342v1.35h-7.46v-1.121l4.415-4.653c.348-.373.637-.756.859-1.163.221-.408.323-.85.323-1.342 0-.322-.051-.628-.153-.908a2.203 2.203 0 0 0-.46-.739 2.01 2.01 0 0 0-.748-.492 2.632 2.632 0 0 0-.995-.179c-.332 0-.621.043-.876.12a2.554 2.554 0 0 0-.689.313c-.204.136-.383.28-.553.459-.162.17-.315.348-.459.543l-1.03-.832v.017l.009-.008ZM126.459 27.267c-.409 0-.783.085-1.149.246a2.28 2.28 0 0 0-.944.798c-.263.374-.485.858-.646 1.452-.162.595-.238 1.325-.238 2.19 0 .867.076 1.588.238 2.191.161.595.374 1.079.646 1.444.264.373.579.636.944.806.366.17.749.247 1.149.247a2.67 2.67 0 0 0 1.122-.247c.358-.161.664-.433.936-.806.264-.374.476-.858.638-1.444.153-.594.238-1.324.238-2.19 0-.815-.076-1.512-.238-2.106a4.722 4.722 0 0 0-.638-1.46 2.598 2.598 0 0 0-.936-.85 2.484 2.484 0 0 0-1.122-.271Zm0-1.375c.604 0 1.165.118 1.701.365.536.237 1.003.61 1.403 1.112.4.5.715 1.13.953 1.885.238.755.349 1.664.349 2.7 0 1.036-.119 2.004-.349 2.768-.23.764-.545 1.392-.953 1.876-.4.493-.867.84-1.403 1.07a4.44 4.44 0 0 1-1.701.34 4.37 4.37 0 0 1-1.719-.34c-.544-.22-1.012-.577-1.42-1.07-.408-.492-.731-1.112-.97-1.876-.238-.764-.357-1.69-.357-2.768 0-1.079.119-2.004.357-2.777.239-.772.562-1.392.97-1.876.408-.484.876-.84 1.42-1.07a4.498 4.498 0 0 1 1.719-.34ZM132.251 27.853c.136-.204.315-.416.519-.646.204-.22.459-.441.748-.636.298-.196.63-.357 1.021-.484a4.36 4.36 0 0 1 1.352-.195c.604 0 1.14.093 1.608.28a3.299 3.299 0 0 1 1.939 1.944 4.169 4.169 0 0 1 .119 2.488 4.816 4.816 0 0 1-.365.883 5.439 5.439 0 0 1-.511.756c-.187.229-.383.45-.57.653l-3.385 3.592h5.342v1.35h-7.46v-1.121l4.415-4.653c.348-.373.638-.756.859-1.163.221-.408.323-.85.323-1.342 0-.322-.051-.628-.153-.908a2.203 2.203 0 0 0-.46-.739 2.01 2.01 0 0 0-.748-.492 2.632 2.632 0 0 0-.995-.179c-.332 0-.621.043-.876.12a2.554 2.554 0 0 0-.689.313c-.204.136-.383.28-.553.459-.162.17-.315.348-.459.543l-1.03-.832v.017l.009-.008Z"/></g><path d="M148.437 34.06h1.965V35.4h-1.965v2.437h-1.429V35.4h-5.452v-1.095l4.415-8.236h1.616l-4.313 7.99h3.743v-3.252h1.42v3.251Z" fill="#000"/></g><defs><clipPath id="a"><path fill="#fff" d="M0 0h153v50H0z"/></clipPath></defs></svg>