<svg width="106" height="20" fill="none" xmlns="http://www.w3.org/2000/svg"><g clip-path="url(#clip0_224_1732)"><path d="M29.231 11.258c-.114.98-.346 1.601-.693 1.914-.27.277-.637.443-1.025.465a.677.677 0 01-.758-.764c.016-.94.842-1.478 2.476-1.615zm3.092 4.406a4.208 4.208 0 01-.075-.813c.056-.598.152-1.191.288-1.777.495-2.403.738-3.803.748-4.195a2.16 2.16 0 00-1.056-2.027 5.66 5.66 0 00-2.997-.67c-2.53 0-4.19.854-4.978 2.56l2.923.618c.24-.627.848-1.04 1.525-1.039.69 0 1.026.254.99.759a1.946 1.946 0 01-.118.529c-1.6.146-2.675.27-3.225.357-.552.101-1.084.29-1.575.558-.508.261-.937.65-1.244 1.126a3.006 3.006 0 00-.49 1.567c-.038.704.231 1.39.742 1.884a2.84 2.84 0 002.067.753 3.396 3.396 0 003.007-1.727 11.3 11.3 0 00-.085 1.091 3.522 3.522 0 000 .431l3.553.015zm-9.636-2.321l-.392 2.32h-8.099l.392-2.07 4.607-4.895h-3.383l.42-2.237h7.778l-.341 1.777-4.84 5.105h3.858zM15.752 3.2h-3.428L9.98 15.664h3.434L15.752 3.2zm-9.541 8.057c-1.64.127-2.478.661-2.478 1.601a.677.677 0 00.779.778c.39-.023.757-.189 1.03-.465.322-.299.555-.935.669-1.914zm3.076 4.406H5.755a3.53 3.53 0 010-.431c.01-.366.039-.73.09-1.092a3.405 3.405 0 01-3.013 1.728 2.82 2.82 0 01-2.061-.754 2.433 2.433 0 01-.768-1.898A2.963 2.963 0 01.5 11.649a3.188 3.188 0 011.238-1.125 5.352 5.352 0 011.626-.554c.549-.087 1.624-.21 3.224-.356.065-.17.104-.348.12-.529 0-.49-.327-.759-1.016-.759A1.635 1.635 0 004.16 9.36l-2.923-.618c.79-1.706 2.45-2.56 4.978-2.56a5.645 5.645 0 012.978.67 2.156 2.156 0 011.055 2.003c0 .392-.262 1.791-.748 4.195a13.322 13.322 0 00-.287 1.777c-.004.28.021.561.074.837z" fill="#203463"/><path d="M61.46 10.338c.356.015.698-.137.922-.411.217-.263.337-.59.337-.93a.893.893 0 00-.99-1.013 1.134 1.134 0 00-.953.42 1.577 1.577 0 00-.326.98.866.866 0 00.292.695c.202.163.457.251.719.245v.014zm-2.685 5.326c-.35.206-.524.42-.524.636 0 .464.768.695 2.303.695a6.633 6.633 0 001.645-.142c.341-.093.495-.28.495-.553a.34.34 0 00-.238-.357 4.1 4.1 0 00-1.04-.123c-1.535-.083-2.423-.156-2.641-.156zm8.209-11.86l-.218 2.3a8.997 8.997 0 00-.833-.063 1.418 1.418 0 00-1.396.738 2.517 2.517 0 011.431 2.203 2.84 2.84 0 01-.93 2.09c-.618.614-1.758.919-3.42.915a8.457 8.457 0 01-.866-.038 7.976 7.976 0 00-.704-.054.803.803 0 00-.555.195.579.579 0 00-.217.451.488.488 0 00.148.352.581.581 0 00.343.157c.128 0 .683.04 1.659.068 1.07.04 1.769.073 2.086.113.366.06.72.183 1.045.362.374.194.686.487.901.847.22.37.333.79.327 1.22a2.884 2.884 0 01-1.164 2.27c-.772.646-2.244.979-4.404.979-3.27 0-4.904-.743-4.904-2.228 0-.773.557-1.366 1.669-1.78a1.725 1.725 0 01-.902-1.47c0-1.024.755-1.752 2.264-2.183a2.253 2.253 0 01-1.297-2.055 2.648 2.648 0 011.074-2.1c.714-.594 1.914-.89 3.602-.887.486-.003.97.043 1.447.138.267-1.723 1.221-2.584 2.863-2.584.248-.01.565.01.951.043zM76.848 6.427l-1.545 9.237h-3.37l.308-1.733c-.746 1.305-1.781 1.957-3.106 1.957a2.635 2.635 0 01-1.872-.636 2.09 2.09 0 01-.68-1.581c.028-.493.09-.984.19-1.469l.964-5.77h3.602l-.891 5.277c-.059.297-.1.598-.124.9 0 .46.212.69.639.69.807 0 1.337-.769 1.6-2.305l.758-4.567h3.527zM82.916 11.258c-1.693.127-2.54.665-2.54 1.611 0 .513.272.773.816.773.4-.017.776-.184 1.055-.465.348-.303.57-.94.665-1.919h.004zm3.285 4.406H82.55a4.04 4.04 0 01-.03-.431c.005-.368.028-.735.07-1.102a3.445 3.445 0 01-3.067 1.743 3.041 3.041 0 01-2.15-.759 2.47 2.47 0 01-.827-1.898c-.003-.55.15-1.09.441-1.558a3.153 3.153 0 011.258-1.13 5.42 5.42 0 011.66-.549c.564-.087 1.672-.208 3.324-.362.063-.17.102-.347.114-.528 0-.49-.357-.76-1.07-.76a1.64 1.64 0 00-1.556 1.034l-3.037-.612c.767-1.713 2.46-2.57 5.083-2.57a6.111 6.111 0 013.121.68 2.211 2.211 0 011.134 2.007c0 .395-.22 1.796-.663 4.2a12.354 12.354 0 00-.253 1.782c.007.273.04.545.099.813zM88.811 6.427h3.112l-.372 2.222c.649-1.664 1.634-2.496 2.972-2.496.146.003.292.018.435.044l-.415 3.289-.634-.029a2.33 2.33 0 00-1.7.533 3.521 3.521 0 00-.768 1.894l-.638 3.78H87.25l1.56-9.237zM100.681 9.7c.02-.1.03-.203.03-.308a.892.892 0 00-.283-.665.954.954 0 00-.68-.274c-.633 0-1.088.49-1.366 1.444-.25.78-.391 1.59-.42 2.408 0 .842.33 1.263.99 1.263.659 0 1.09-.421 1.302-1.263l.427-2.604zm4.651-6.514l-2.105 12.476h-3.315l.228-1.395c-.762 1.113-1.689 1.67-2.769 1.67a2.853 2.853 0 01-2.18-.979 3.996 3.996 0 01-.916-2.82 7.052 7.052 0 011.269-4.111 3.794 3.794 0 013.24-1.836c1.128 0 1.89.44 2.283 1.317l.723-4.298 3.542-.024z" fill="#2E8FCE"/><path d="M41.066 13.5a13.6 13.6 0 01-2.878-8.258c1.447-.245 4.419-.945 6.678-2.726 2.264 1.786 5.24 2.48 6.682 2.73a24.494 24.494 0 01-.495 4.784l1.545 1.522c.62-2.32.903-4.715.838-7.112v-.838l-.842-.078c-.045 0-4.519-.49-7.07-2.903L44.866 0l-.655.62c-2.55 2.434-7.019 2.9-7.054 2.904l-.842.078v.838c0 4.101 1.115 7.518 3.433 10.377l1.318-1.317z" fill="#203463"/><path d="M44.865 20l-3.348-3.309 1.322-1.307 2.026 1.997 4.968-4.909 1.328 1.306L44.865 20z" fill="#2E8FCE"/></g><defs><clipPath id="clip0_224_1732"><path fill="#fff" d="M0 0h106v20H0z"/></clipPath></defs></svg>